<svg xmlns="http://www.w3.org/2000/svg" width="256" height="256"><path fill="#1976D2" fill-opacity=".016" fill-rule="evenodd" d="M0 128.004v128.004l128.25-.254 128.25-.254.254-127.75L257.008 0H0zm.485.496c0 70.4.119 99.053.265 63.672s.146-92.98 0-128S.485 58.1.485 128.5"/><path fill="#1976D2" fill-opacity=".195" fill-rule="evenodd" d="M111.315.937c-14.114 2.255-27.613 8.136-39.9 17.383-6.191 4.66-8.004 5.484-14.374 6.536-7.988 1.319-15.92 4.772-21.465 9.342L32 37.146V152.11l5.75-4.688c3.163-2.578 6.827-5.179 8.144-5.781 2.075-.948 2.604-.763 3.974 1.383 3.55 5.561 16.13 17.493 23.632 22.414 18.511 12.143 33.151 16.121 56.304 15.301 22.18-.786 37.267-6.315 54.081-19.818 3.604-2.895 7.524-5.033 10.658-5.813 6.355-1.582 14.924-6.329 19.707-10.917l3.75-3.597V26.82l-4.422 4.214c-4.362 4.158-12.393 9.953-13.802 9.962-.399.002-1.435-1.37-2.303-3.049-2.417-4.673-15.268-17.731-21.854-22.205C167.946 10.53 155.162 4.65 147 2.578 139.491.672 118.9-.275 111.315.937M49.988 32.828c-2.482.919-5.969 2.557-7.75 3.638L39 38.431v84.444l6.274-2.845c3.451-1.565 8.943-3.338 12.204-3.941 6.191-1.145 9.496-2.95 5.972-3.262-1.073-.095.75-.489 4.05-.877 5.436-.639 5.2-.684-2.5-.481l-8.5.223-2-4.096c-1.482-3.036-2.906-4.389-5.5-5.227l-3.5-1.13-.268-23.599-.268-23.598 3.527-2.271c3.116-2.007 5.928-6.327 7.903-12.14.574-1.692 1.541-1.829 10.228-1.449 5.277.231 8.983.172 8.236-.131-1.502-.609-1.829-3.206-.525-4.161 1.408-1.032-7.884-2.894-14.026-2.812-3.194.042-7.837.83-10.319 1.75M77 34c.825.533 1.95.969 2.5.969s.325-.436-.5-.969-1.95-.969-2.5-.969-.325.436.5.969m130.06 10.297C202.11 47.726 189.856 53 186.837 53c-1.099 0-1.674.455-1.312 1.04.414.67-.367.846-2.191.494-1.559-.3-2.159-.258-1.334.094s2.106 1.121 2.847 1.709c1.099.872 1.007 1.219-.5 1.885-1.87.826 1.309.475 7.653-.847 2.588-.539 3-.333 3 1.5 0 3.059 3.504 6.125 7 6.125h3v50.05l-2.339.889c-3.521 1.339-7.661 6.798-7.661 10.103 0 3.196-1.624 4.434-7.69 5.861-2.493.586-3.012.931-1.501.997 1.27.055 2.031.55 1.691 1.1s-.029 1.032.691 1.07.409.494-.691 1.011c-1.46.687-.943.782 1.918.353 6.683-1.002 14.237-4.354 18.537-8.225l4.12-3.709-.288-41.64-.287-41.639zM111.789 66.75l-.289 8.75-3.25.313c-2.666.257-3.25.74-3.25 2.687s.584 2.43 3.25 2.687c2.967.286 3.277.639 3.56 4.063.306 3.689.253 3.75-3.25 3.75-3.352 0-3.56.19-3.56 3.26 0 3.013.246 3.259 3.25 3.25l3.25-.01.287 8.649.288 8.648 3.928.375 3.928.374.284-9.023.285-9.023 6.5-.5c8.045-.619 12.826-3.254 15.5-8.544 2.379-4.706 3.419-5.621 5.75-5.063 1.361.327 1.75-.226 1.75-2.487 0-2.204-.466-2.906-1.929-2.906-1.532 0-2.163-1.126-3.064-5.465-1.967-9.476-7.728-12.52-23.718-12.529L112.078 58zm66.961-7.088c.688.278 1.813.278 2.5 0 .688-.277.125-.504-1.25-.504s-1.937.227-1.25.504M59 77.082v11.082l6.908-.332c3.799-.183 6.752-.083 6.562.222s1.089 1.084 2.842 1.73l3.188 1.177-2.5-1.958c-1.375-1.077-2.015-1.969-1.421-1.981.963-.02 1.379-3.475 1.783-14.787.08-2.255.522-3.11 1.429-2.762.722.277 1.06.096.752-.404C77.768 67.816 68.838 66 63.451 66H59zm61.195-6.332.305 4.75 7.75.292 7.75.292v-2.969c0-4.491-3.943-7.115-10.69-7.115h-5.42zM79.232 83c0 1.925.206 2.713.457 1.75.252-.963.252-2.537 0-3.5-.251-.963-.457-.175-.457 1.75m41.435-1.333c-.367.366-.667 2.166-.667 4 0 3.229.127 3.333 4.05 3.333 6.384 0 12.287-4.027 10.394-7.09-.643-1.041-12.766-1.255-13.777-.243m51.122 5.709c.493 8.755.825 9.375 1.276 2.383.257-3.986.026-6.898-.565-7.124-.608-.233-.887 1.624-.711 4.741M182 84c-4.125.352-7.012.721-6.417.82 1.247.207 1.239.153 1.625 10.43.239 6.328.017 7.763-1.208 7.82-2.648.124 2.278 1.785 5.5 1.854 1.65.036 4.709-.41 6.798-.99l3.798-1.055-.171-9.939c-.116-6.729-.536-9.882-1.298-9.76-.62.099-4.502.468-8.627.82M79.158 90c0 1.375.227 1.938.504 1.25.278-.687.278-1.812 0-2.5-.277-.687-.504-.125-.504 1.25m91.921 9.583c.048 1.165.285 1.402.604.605.289-.722.253-1.585-.079-1.917s-.568.258-.525 1.312M30.253 190.107c-2.335.555-7.055 2.896-10.487 5.201-5.1 3.426-6.837 5.351-9.503 10.529-2.855 5.544-3.261 7.297-3.25 14 .01 6.469.467 8.559 2.929 13.413 1.604 3.162 2.627 5.75 2.275 5.75-1.766 0 9.912 10.487 14.025 12.595 9.563 4.901 22.709 4.714 34.179-.486L67 248.125v-10.039c0-9.606.108-10.111 2.5-11.678 2.981-1.953 3.174-4.972.539-8.403l-1.917-2.494.311 2.825c.208 1.897-.223 3.022-1.312 3.422-2.744 1.009-3.09 2.409-3.106 12.555L64 244.125l-6.75 3.158c-6.226 2.912-7.564 3.157-17.25 3.162-12.292.005-18.47-2.11-24.118-8.259-2.917-3.176-2.97-3.312-.382-.99 4.938 4.43 14.038 8.038 21.643 8.582 7.533.539 13.653-.752 21.107-4.453l4.75-2.359v-9.401c0-10.241.482-12.565 2.607-12.565.881 0 1.393-1.102 1.393-3v-3H41.227l-.44 3c-.333 2.27-.05 3 1.164 3 .882 0 2.633.721 3.892 1.602 2.036 1.427 2.265 2.333 2.08 8.25-.114 3.657-.648 7.211-1.187 7.898-1.924 2.452-14.081 1.208-14.301-1.464-.035-.432-.595-2.586-1.244-4.786-3.037-10.295-.333-22.228 6.098-26.916 2.985-2.175 9.345-2.736 13.711-1.21l2.5.874-2.41-2.608c-4.719-5.11-14.609-4.377-19.508 1.445-1.411 1.676-3.312 5.606-4.226 8.732-1.382 4.731-1.478 6.758-.568 12.106.6 3.533 2.032 7.695 3.182 9.25S31.679 237 31.214 237s-1.935-1.912-3.267-4.25c-2.034-3.571-2.423-5.609-2.434-12.75-.012-7.517.31-9.05 2.78-13.252 4.538-7.719 12.417-10.567 20.217-7.308 2.901 1.212 6.61 5.479 7.784 8.953.166.492 1.293.363 2.504-.285 2.568-1.374 2.781-4.22.87-11.608-1.289-4.984-1.309-5.002-6.23-5.746-9.203-1.389-18.921-1.661-23.185-.647M87 193.5c0 1.556.567 2.5 1.5 2.5 2.706 0 1.614 4.165-6.42 24.5-6.873 17.396-8.305 20.24-10.991 21.842-2.087 1.244-3.089 2.623-3.089 4.25 0 2.383.102 2.408 10 2.408 9.551 0 10-.096 10-2.14 0-1.177-.763-2.697-1.695-3.379-1.487-1.087-1.543-1.743-.459-5.36L87.08 234h9.485c9.111 0 9.521.095 10.404 2.418 1.348 3.545.864 6.392-1.177 6.926-1.142.299-1.792 1.41-1.792 3.062V249h13c12.624 0 13-.062 13-2.144 0-1.181-1.555-3.54-3.461-5.25-2.909-2.611-4.839-6.693-12.104-25.606-4.754-12.375-8.87-23.062-9.147-23.75-.349-.869-3.215-1.25-9.395-1.25-8.819 0-8.893.021-8.893 2.5m21.377 3.5c4.321 11.924 13.858 36.467 15.183 39.073.719 1.415 2.099 3.215 3.066 4 1.397 1.134 1.589 1.146.934.059-.453-.752-4.508-10.998-9.01-22.768s-9.163-22.629-10.357-24.132c-2.15-2.705-2.148-2.668.184 3.768M135 192.763c0 .969 1.012 2.207 2.25 2.75 2.214.971 2.255 1.314 2.533 21.487.156 11.275.037 21.506-.265 22.735-.318 1.295-1.593 2.497-3.033 2.858-1.93.485-2.485 1.27-2.485 3.515V249h42.944l1.603-5.75c2.624-9.41 3.631-12.406 4.035-12.001.21.21-.51 3.501-1.6 7.313-1.09 3.813-1.982 7.946-1.982 9.185V250h-22.883c-22.844 0-22.885-.004-23.627-2.25l-.744-2.25-.443 2.25c-.433 2.201-.737 2.25-14.028 2.25-13.522 0-13.577.009-11.775 2 1.644 1.817 3.08 2 15.655 2 12.216 0 13.845-.195 13.845-1.655 0-1.54.127-1.54 1.829 0 1.583 1.433 4.734 1.655 23.441 1.655 13.368 0 21.848-.382 22.232-1.003.414-.67 1.241-.67 2.493 0 1.03.552 6.178 1.003 11.439 1.003H206v-2.918c0-3.515-.889-6.082-2.107-6.082-.491 0-.893 1.097-.893 2.438 0 2.416-.094 2.44-11.002 2.75l-11.002.312.002-3.509c.001-2.396.621-3.897 1.952-4.728 2.865-1.789 3.752-7.829 1.514-10.303-2.241-2.476-6.139-2.56-6.904-.149-.316.996-2.034 3.197-3.817 4.892-2.848 2.704-4.188 3.165-10.993 3.774l-7.75.694v-22.077c0-20.994.098-22.138 2-23.326 1.1-.687 2-2.041 2-3.009 0-1.581-1.214-1.759-12-1.759-10.795 0-12 .177-12 1.763m66.482.241c.081 1.103.947 2.589 1.923 3.303 1.656 1.211 1.181 2.774-7.065 23.242-7.578 18.811-9.233 22.131-11.59 23.252-1.894.901-2.75 2.07-2.75 3.754 0 2.43.06 2.445 10 2.445 9.551 0 10-.096 10-2.14 0-1.177-.763-2.697-1.695-3.379-1.487-1.087-1.543-1.743-.459-5.36L201.08 234h18.724l1.098 3.149c1.55 4.447 1.391 5.415-1.074 6.515-1.195.533-2.244 1.951-2.333 3.152-.158 2.144.083 2.184 13.172 2.184H244v-2.474c0-1.714-.884-2.932-2.876-3.962-1.694-.876-3.496-3.044-4.384-5.276-9.719-24.417-16.863-43.499-16.442-43.919.285-.286.841.527 1.235 1.806 2.416 7.849 16.896 43.121 18.484 45.026 1.054 1.265 1.931 2.027 1.95 1.694s-4.025-10.882-8.985-23.442c-8.583-21.732-11.248-27.025-13.047-25.913-.438.271-1.079.035-1.425-.524-.345-.559-4.351-1.016-8.902-1.016-7.662 0-8.263.148-8.126 2.004m-139.996 6.915 1.214 7.075-2.879 1.822c-2.814 1.782-2.835 1.861-.964 3.554 1.823 1.65 2.035 1.623 4.494-.569 2.577-2.297 2.579-2.313 1.259-9.122-.728-3.751-2.001-7.499-2.83-8.328-1.343-1.343-1.375-.736-.294 5.568M160 194.137c0 .76-.9 1.944-2 2.631-1.897 1.185-2 2.332-2 22.24 0 17.993.214 20.992 1.5 20.992 1.281 0 1.5-2.774 1.5-18.965 0-17.941.108-19.022 2-20.035 2.363-1.265 2.645-5.219.5-7-1.21-1.004-1.5-.978-1.5.137m-23.573 3.384c1.06.802 2.172 1.214 2.471.914.628-.627-1.912-2.412-3.398-2.388-.55.009-.133.673.927 1.474m72.663 17.107c-.701 1.937-1.029 3.766-.73 4.065s.838-.632 1.198-2.068 1.057-2.363 1.549-2.059c.491.304.893-.123.893-.948 0-3.003-1.668-2.424-2.91 1.01m-114.523 1.497c-.908 2.268-1.409 4.366-1.113 4.662.295.296 1.033-.886 1.639-2.625 1.074-3.079 2.907-4.337 2.907-1.995 0 .641.266.9.591.575.789-.789-.503-4.742-1.55-4.742-.453 0-1.567 1.856-2.474 4.125m4.119 4.694c-.506 2.532-1.134 3.181-3.078 3.181-1.343 0-2.621-.54-2.841-1.199-.25-.751-.644-.563-1.052.5-.565 1.471.081 1.699 4.816 1.699 3.183 0 5.469-.443 5.469-1.059 0-.582-.52-.738-1.155-.346-.679.42-.884.277-.498-.348.361-.584.279-2.085-.184-3.335-.797-2.154-.874-2.106-1.477.907m113.475.149c-1.443 4.138-1.449 4.032.232 4.032 1.881 0 2.723-2.513 1.736-5.18-.755-2.041-.882-1.967-1.968 1.148m-6.126.966c-1.498 2.8-1.336 3.079 1.715 2.95 1.769-.075 2.111-.282.958-.581-1.243-.323-1.605-1.052-1.182-2.384.789-2.485-.158-2.476-1.491.015M42 222.853c0 .366.9 1.228 2 1.915 1.64 1.024 2 .999 2-.143 0-.765-.9-1.627-2-1.915-1.1-.287-2-.223-2 .143m45.185 15.359c-.49 1.808-.706 3.626-.479 4.038.816 1.485 3.172.708 3.794-1.25.561-1.766 1.513-2 8.141-2 6.609 0 7.466-.209 7.171-1.75-.283-1.479-1.68-1.795-9.035-2.038l-8.7-.289zm113.99.038c-.485 1.787-.696 3.588-.469 4 .816 1.485 3.172.708 3.794-1.25.561-1.767 1.513-2 8.174-2 6.465 0 7.453-.226 6.933-1.582-.334-.87-.607-1.77-.607-2s-3.812-.418-8.471-.418h-8.472zm43.858 8.5L245 250h-27.27l2.543 2c2.248 1.769 4.057 2 15.635 2H249v-2.889c0-1.589-.885-3.952-1.967-5.25l-1.966-2.361zM89.917 245.5c-.081.55-.067 1.787.031 2.75.159 1.568-.947 1.753-10.635 1.783l-10.813.034 2.361 1.966c1.997 1.664 3.883 1.967 12.25 1.967H93v-2.809c0-2.671-2.775-7.792-3.083-5.691"/><path fill="#1976D2" fill-opacity=".485" fill-rule="evenodd" d="M113.5 1.096c-16.734 2.221-33.629 9.819-45.753 20.575C64.862 24.23 63.094 25 60.102 25c-8.35 0-23.67 6.953-27.337 12.407-.404.601-.741 26.688-.75 57.97L32 152.255l4.25-3.903c2.338-2.146 5.993-4.974 8.122-6.284 3.392-2.087 3.981-2.189 4.745-.823 2.639 4.715 11.18 13.775 18.273 19.384 9.54 7.544 20.653 13.244 33.11 16.982 8.06 2.419 10.618 2.705 24.5 2.742 11.366.031 17.321-.412 22.329-1.66 13.669-3.405 28.111-10.739 37.326-18.955 2.297-2.048 5.807-3.911 8.718-4.628 6.427-1.584 13.064-5.016 19.436-10.053l5.191-4.104V27.767l-4.091 3.697C209.808 35.168 201.236 41 199.892 41c-.394 0-2.769-2.876-5.278-6.392C177.585 10.743 144.33-2.996 113.5 1.096M49.703 32.442c-2.089.745-5.576 2.532-7.75 3.971L38 39.028v42.486c0 23.367.168 42.486.374 42.486s2.346-1.102 4.756-2.449c5.7-3.186 14.919-5.551 21.639-5.551 6.7 0 18.34 1.774 23.437 3.573 4.14 1.461 4.157 1.373.684-3.652-2.379-3.442-10.465-5.255-23.149-5.192-9.36.047-9.782-.045-10.334-2.245-.688-2.741-4.042-5.992-7.157-6.936l-2.25-.683V77c0-22.808.087-23.893 1.956-24.486 2.926-.929 6.879-6.12 7.605-9.986.511-2.724 1.222-3.541 3.518-4.045 5.554-1.22 21.199 1.73 35.18 6.634 5.56 1.95 5.896 1.959 9.732.267 3.837-1.693 4.298-2.499 1.73-3.025-.672-.138-5.721-1.878-11.221-3.868-19.772-7.154-35.678-9.302-44.797-6.049m159.896 9.448c-2.63 2.907-12.283 7.67-20.599 10.166-6.096 1.829-10.074 2.269-21.249 2.347-8.082.057-13.62.484-13.437 1.036.172.517 1.557 1.867 3.078 3 2.444 1.82 4.131 2.051 14.437 1.972 7.64-.059 13.484-.644 16.921-1.696 4.18-1.28 5.25-1.34 5.25-.296 0 2.765 4.101 6.581 7.073 6.581H204v49.665l-3.75 2.417c-2.801 1.806-4.16 3.655-5.372 7.306-.891 2.689-2.299 5.268-3.128 5.732-4.494 2.515-21.59 1.708-32.25-1.522-1.423-.431-2.521.12-3.805 1.908-1.375 1.917-1.494 2.604-.5 2.89l7.805 2.239c4.678 1.342 9.584 1.846 17.5 1.796 12.494-.079 18.457-1.852 26.75-7.955l4.75-3.495V82.99c0-23.644-.155-42.99-.345-42.99s-1.115.851-2.056 1.89M111 66.5V75h-3.5c-3.333 0-3.5.167-3.5 3.5s.167 3.5 3.5 3.5 3.5.167 3.5 3.5-.167 3.5-3.5 3.5-3.5.167-3.5 3.5.167 3.5 3.5 3.5h3.5v18.11l4.607-.305 4.607-.305.143-8.75.143-8.749 4-.006c8.924-.013 16.439-4.212 19.149-10.698 1.122-2.686 1.931-3.297 4.364-3.297 2.747 0 2.987-.281 2.987-3.5 0-3.067-.31-3.5-2.5-3.5-1.919 0-2.505-.523-2.522-2.25-.046-4.689-3.683-10.559-7.863-12.691C134.731 58.332 132.216 58 122.54 58H111zM59 77v11h5.463c3.092 0 7.649.862 10.5 1.985L80 91.971v-5.268c0-2.897.643-7.728 1.429-10.735.787-3.007 1.124-5.746.75-6.085C80.282 68.16 70.906 66 65.322 66H59zm61.932-10.874c-.037.206-.15 2.287-.25 4.625l-.182 4.251 7.858-.001 7.859-.001-.674-2.75c-1.041-4.244-2.968-5.538-8.992-6.037-3.053-.254-5.582-.292-5.619-.087M120.9 82.5c-.055.275-.136 1.737-.18 3.25-.076 2.65.094 2.744 4.701 2.579 4.528-.161 9.579-3.064 9.579-5.503 0-.869-13.927-1.19-14.1-.326m50.45 7.72c-.029 4.554-.359 9.239-.732 10.412-.487 1.533-.178 2.325 1.102 2.822 3.376 1.31 14.775 1.746 17.53.67l2.75-1.074V82.213l-4.25.972c-3.862.884-11.837.486-15.06-.751-.982-.376-1.299 1.466-1.34 7.786M27.624 191.939q-16.53 6.655-19.668 21.774c-5.354 25.789 22.313 44.378 47.983 32.238L62 243.085v-9.59c0-8.945.168-9.746 2.5-11.907 1.375-1.275 2.5-3.053 2.5-3.953 0-1.43-1.633-1.635-13-1.635-12.212 0-13 .118-13 1.945 0 1.131 1.139 2.492 2.721 3.25 4.004 1.92 5.458 5.401 4.885 11.697-.27 2.966-.94 5.842-1.49 6.392-.549.549-3.162 1.2-5.807 1.446-9.787.912-16.309-7.275-16.309-20.474C25 205.908 31.42 198 43.068 198c4.642 0 5.546.381 8.895 3.75 2.051 2.063 3.93 4.372 4.177 5.133.304.936 1.171 1.153 2.685.673 2.382-.756 2.392-2.459.07-11.702-1.041-4.143-1.943-4.413-17.895-5.369-6.949-.416-9.389-.151-13.376 1.454M88 193.492c0 .864.675 1.83 1.5 2.146.825.317 1.5 1.416 1.5 2.442s-3.697 11.142-8.217 22.48c-6.98 17.511-8.635 20.829-11 22.052-1.906.986-2.783 2.219-2.783 3.914 0 2.458.06 2.474 9.5 2.474 9.467 0 9.5-.009 9.5-2.5 0-1.49-.572-2.5-1.417-2.5-1.983 0-2.447-1.985-1.285-5.5 1.775-5.366 2.293-5.593 12.062-5.286l9.057.286 1.219 4.219c1.166 4.036 1.107 4.302-1.371 6.106-1.739 1.267-2.379 2.437-1.947 3.562.562 1.463 2.198 1.639 12.912 1.394 11.767-.269 12.283-.371 12.582-2.473.224-1.571-.495-2.61-2.535-3.665-3.669-1.897-3.799-2.164-13.73-28.143l-8.409-22-8.569-.289c-7.243-.244-8.569-.046-8.569 1.281m47-.527c0 .53 1.012 1.498 2.25 2.15s2.488 1.546 2.78 1.987.494 10.324.451 21.962l-.078 21.159-3.363 2.745c-2.285 1.865-3.162 3.272-2.733 4.389.557 1.451 3.059 1.643 21.464 1.643h20.834l2.512-8.964c1.921-6.859 2.215-9.078 1.248-9.45-.696-.266-2.252 1.114-3.46 3.068-3.445 5.575-7.218 7.338-15.71 7.342l-7.305.004.305-21.397c.267-18.706.525-21.641 2.055-23.329 3.442-3.798 2.357-4.274-9.75-4.274-6.72 0-11.5.401-11.5.965m67 .566c0 .843.713 1.805 1.585 2.14 2.36.905 1.378 4.478-6.916 25.176-7.219 18.016-8.234 19.904-12.593 23.451-3.875 3.151-2.092 4.181 7.772 4.49 7.817.245 9.281.039 9.825-1.378.408-1.064-.131-2.252-1.493-3.288-2.005-1.526-2.053-1.888-.798-6.122l1.334-4.5 9.466-.284c9.324-.28 9.483-.246 10.642 2.297 1.77 3.884 1.441 7.275-.824 8.487-1.1.589-2 1.968-2 3.065 0 1.903.584 1.982 12.75 1.715 11.897-.261 12.766-.414 12.989-2.28.158-1.321-.857-2.684-2.988-4.013-2.891-1.803-4.21-4.54-12.649-26.25L218.681 192h-8.341c-6.823 0-8.34.279-8.34 1.531M94.158 216.25a758 758 0 0 1-2.679 7c-.613 1.549-.006 1.75 5.276 1.75h5.969l-2.495-7c-1.373-3.85-2.853-7-3.29-7-.438 0-1.689 2.363-2.781 5.25m113.473.816c-1.447 3.336-2.631 6.486-2.631 7s2.475.934 5.5.934 5.5-.363 5.5-.806c0-1.886-4.252-13.194-4.961-13.194-.428 0-1.961 2.73-3.408 6.066"/><path fill="#1976D2" fill-opacity=".404" fill-rule="evenodd" d="M114 1.567c-18.957 3.302-31.562 8.605-43.593 18.34-5.2 4.207-6.908 5.009-11.985 5.628-7.942.967-15.254 3.793-20.825 8.046L33 37.092v113.149l4.25-3.446c2.338-1.895 5.746-4.312 7.574-5.37l3.324-1.925 2.139 3c4.416 6.192 15.227 16.605 22.356 21.534 13.116 9.067 26.409 13.939 43.864 16.075 22.579 2.764 49.026-4.971 66.623-19.486 3.795-3.131 7.876-5.59 9.911-5.972 5.426-1.021 15.351-6.107 19.854-10.175l4.105-3.709V28.815l-5.198 4.673c-2.859 2.57-6.869 5.526-8.911 6.568l-3.714 1.894-3.138-4.889c-4.429-6.902-17.471-19.04-25.729-23.946-7.118-4.229-14.438-7.176-24.31-9.787-5.393-1.426-27.073-2.619-32-1.761m-3.5 6.907c-10.374 1.916-20.546 5.812-28.339 10.853-3.808 2.463-7.191 4.913-7.519 5.443s2.206 1.698 5.631 2.595 6.902 1.819 7.727 2.048 7.35 2.529 14.5 5.112 17.275 5.499 22.5 6.482c5.225.982 13.55 2.758 18.5 3.946 12.038 2.891 20.376 3.817 30 3.332 9.27-.467 18.5-2.835 18.5-4.746 0-.725-1.942-3.957-4.316-7.182C171.639 14.562 139.802 3.061 110.5 8.474M52.718 31.029c-4.773 1.203-9.569 3.612-12.468 6.262L38 39.349v85.286l6.75-3.341c12.017-5.947 24.372-6.508 40.5-1.838 4.263 1.234 7.75 2.046 7.75 1.804s-1.238-2.175-2.75-4.295c-2.475-3.47-3.499-4.023-10.25-5.535-5.225-1.17-10.003-1.523-15.75-1.165-7.394.46-8.25.332-8.25-1.241 0-2.784-3.751-6.81-7.012-7.527L46 100.841V55.006l5-4.819c4.037-3.891 5-5.462 5-8.154v-3.334l10.25.581c8.2.464 12.65 1.37 22.25 4.526l12 3.946 4.5-2.289c5.178-2.634 6.257-1.811-9.5-7.251-20.132-6.95-34.278-9.325-42.782-7.183M209 42.233c-4.242 3.489-16.208 8.705-23.529 10.256-7.565 1.602-23.417 1.918-30.221.602-2.338-.452-4.25-.64-4.25-.418s1.765 2.187 3.922 4.366L158.843 61l10.829-.016c5.969-.008 13.52-.665 16.828-1.464 7.471-1.804 7.5-1.805 7.5-.194 0 1.934 4.07 5.419 7.25 6.208l2.75.683v24.391c0 15.009-.371 24.392-.965 24.392-.531 0-2.559 1.399-4.506 3.108-2.483 2.181-3.724 4.26-4.156 6.963-.53 3.313-1.127 4.034-4.245 5.134-5.174 1.826-18.381 1.293-26.628-1.075l-7-2.009-2.765 2.641c-3.357 3.207-3.207 3.31 8.889 6.119 12.083 2.806 24.341 2.826 32.575.052 5.956-2.006 13.169-6.261 15.619-9.214.906-1.091 1.139-11.982.943-43.996l-.261-42.547zm-97.376 6.765c-9.663 3.774-14.915 8.669-19.85 18.502-6.006 11.967-5.505 26.159 1.407 39.864 4.192 8.313 9.768 15.271 21.722 27.103l10.069 9.967 9.129-9.467c11.11-11.521 16.788-19.307 21.606-29.627 3.157-6.762 3.718-9.078 4.083-16.84.317-6.743.031-9.878-1.142-12.5-1.453-3.249-1.515-3.285-.866-.5 2.07 8.884-1.019 22.265-7.477 32.387-3.658 5.733-17.57 20.699-22.591 24.302l-2.786 1.999-5.542-4.276c-9.212-7.107-17.174-16.601-21.724-25.902-4.078-8.339-4.162-8.721-4.161-19.01 0-9.219.318-11.177 2.601-16.046 3.682-7.853 8.093-12.432 15.473-16.065 5.478-2.697 7.524-3.158 14.164-3.192 5.8-.029 8.961.496 12.511 2.076 7.011 3.121 5.777 1.628-1.5-1.815-7.677-3.632-17.34-4.001-25.126-.96m.126 8.563c-.412.425-.75 4.522-.75 9.106V75h-3.5c-3.333 0-3.5.167-3.5 3.5s.167 3.5 3.5 3.5c3.222 0 3.5.238 3.5 3s-.278 3-3.5 3c-3.417 0-3.5.095-3.5 4s.083 4 3.5 4h3.5v18h10V96.274l6.53-.524c8.118-.652 13.505-3.891 16.044-9.646.969-2.196 2.024-3.964 2.344-3.93 4.073.438 5.082-.292 5.082-3.674 0-3.067-.31-3.5-2.5-3.5-2.169 0-2.5-.443-2.5-3.352 0-4.187-3.446-9.42-7.925-12.036-2.697-1.575-5.756-2.084-14.496-2.409-6.094-.228-11.417-.066-11.829.358M59 76c0 6.05-.112 11.338-.25 11.75s3.125 1.001 7.25 1.308 8.767 1.095 10.315 1.75c4.021 1.702 4.389 1.538 3.908-1.742-.237-1.614.315-6.615 1.227-11.114.911-4.498 1.52-8.309 1.353-8.467C81.355 68.106 68.564 65 64.335 65H59zm62-5v4h7.5c8.308 0 9.062-.745 5.427-5.365-1.784-2.268-2.827-2.635-7.5-2.635H121zm49.77 20.861c-.247 5.851-.057 11.081.422 11.621 1.041 1.173 14.744 2.002 18.305 1.108 2.478-.622 2.503-.736 2.503-11.476V82.267l-6.75.483c-3.713.265-8.388.03-10.391-.523l-3.64-1.005zM121 85c0 2.866.191 3 4.277 3 4.556 0 8.723-2.177 8.723-4.557 0-1.109-1.502-1.443-6.5-1.443H121zm-65.5 37.39c-6.395 1.274-16.592 6.242-17.29 8.426-.243.76 2.47-.14 6.435-2.136 13.319-6.704 28.07-6.783 47.566-.252 5.472 1.833 9.531 2.914 9.02 2.403-1.534-1.534-18.201-6.922-26.066-8.426-8.553-1.637-11.505-1.639-19.665-.015m-3 7.952c-5.476 1.819-11.864 5.187-13.439 7.085-1.795 2.163-.94 1.984 4.599-.961 8.601-4.573 14.611-5.761 26.263-5.191 6.341.311 13.781 1.408 18.577 2.741 10.627 2.952 12.63 3.3 8.864 1.538-11.165-5.222-36.11-8.12-44.864-5.212m153.978 5.104c-7.318 4.887-13.737 6.802-24.478 7.303-9.737.455-21.309-1.142-30.016-4.142-2.392-.825-4.802-1.219-5.355-.878-1.361.841 8.166 4.031 17.371 5.816 18.074 3.506 34.978.555 45.5-7.943 4.653-3.758 2.535-3.867-3.022-.156M61 136.771c-1.925.204-3.877.739-4.337 1.187-1.321 1.288 9.251 13.022 16.891 18.748 17.15 12.854 33.911 17.923 56.51 17.089 10.617-.392 13.808-.926 21.819-3.653 9.116-3.102 19.022-8.079 24.117-12.117l2.5-1.981-4-.029c-5.302-.039-18.102-3.161-28.47-6.945-8.68-3.168-12.378-3.629-4.821-.601 6.571 2.634 12.228 4.473 20.105 6.537 8.247 2.162 6.895 2.38-5.814.939-11.516-1.306-12.829-1.534-19.739-3.428l-5.739-1.574-2.91 3.257-2.91 3.257-2.12-3.594c-1.909-3.234-3.145-3.929-12.351-6.942-5.627-1.841-10.456-3.393-10.731-3.448s-3.65-1.067-7.5-2.249c-11.851-3.638-22.94-5.257-30.5-4.453m41 1.06c.825.51 2.625 1.228 4 1.596 1.737.465 2.042.386 1-.258-.825-.51-2.625-1.228-4-1.596-1.737-.465-2.042-.386-1 .258m105.153 3.288c-2.313 1.701-7.231 4.16-10.929 5.466-11.721 4.137-30.641 3.075-47.179-2.648-6.871-2.378-9.435-1.963-3.414.553 13.999 5.85 36.865 8.252 47.929 5.036 6.807-1.979 11.704-4.4 15.94-7.882 4.465-3.669 2.52-4.104-2.347-.525M37.762 190.707c1.244.239 3.044.23 4-.02s-.062-.446-2.262-.435-2.982.216-1.738.455m7.988.955c.688.278 1.813.278 2.5 0 .688-.277.125-.504-1.25-.504s-1.937.227-1.25.504m-20.5 1.369c-3.349 1.346-2.723 2.03.75.819 1.65-.575 3-1.227 3-1.448 0-.593-1.217-.389-3.75.629m25.5-.369c.688.278 1.813.278 2.5 0 .688-.277.125-.504-1.25-.504s-1.937.227-1.25.504m4.712 1.088c.91 2.355 2.627 11.494 2.234 11.887-.172.173-2.03-1.74-4.129-4.25-11.403-13.642-28.299-9.241-32.537 8.473-2.266 9.473.875 21.952 6.772 26.907 3.855 3.239 8.14 5.433 9.516 4.873.65-.265.396-.518-.565-.561s-3.546-1.704-5.744-3.69c-8.984-8.116-9.24-25.696-.506-34.689 6.7-6.899 15.77-7.36 22.012-1.119 1.917 1.917 3.485 4.146 3.485 4.952 0 1.735.493 1.809 3.029.452 1.043-.559 1.715-1.571 1.493-2.25s-.912-3.823-1.534-6.985c-.789-4.014-1.594-5.75-2.666-5.75-1.054 0-1.324.549-.86 1.75m41.7-1.014c6.735.426 5.652-1.375 16.839 28.006 5.319 13.972 7.959 19.657 9.636 20.756l2.311 1.514-2.224-3.312c-1.223-1.822-6.041-13.3-10.705-25.506L104.537 192l-6.518.189-6.519.189zm38.508-.073c-.364.365.686 1.483 2.334 2.485 1.855 1.129 2.996 2.653 2.996 4.004 0 1.2.279 1.902.62 1.561 1.245-1.244-.74-5.824-2.9-6.693-1.566-.63.366-.912 6.565-.957 8.385-.06 8.738.025 7.75 1.871-1.595 2.981-1.394 47.066.215 47.067.971.001 1.186-4.905.963-21.963-.274-20.966-.194-22.057 1.75-24.001 1.12-1.12 2.037-2.487 2.037-3.037 0-1.113-21.234-1.433-22.33-.337m66.968.837c-.316.825-.139 1.5.393 1.5.533 0 .969-.675.969-1.5s-.177-1.5-.393-1.5-.652.675-.969 1.5m7.98-.789c7.097.438 5.825-1.442 14.404 21.289 8.662 22.949 9.303 24.42 11.864 27.25 1.368 1.512 2.854 2.75 3.301 2.75s.001-.812-.991-1.804c-2.009-2.009-4.048-6.709-13.97-32.196l-6.812-17.5-6.957-.083c-6.794-.081-6.813-.074-.839.294M89 195c1.958 1.266 3.282 1.266 2.5 0-.34-.55-1.379-.993-2.309-.985-1.457.014-1.484.15-.191.985m-71.833 3.75-3.755 3.75 3.544-2.997c1.949-1.649 3.971-3.336 4.494-3.75s.618-.753.211-.753c-.406 0-2.428 1.688-4.494 3.75m78.529 2.96c-.306.985-2.612 7.19-5.124 13.79-5.036 13.233-5.09 13.418-3.372 11.7.66-.66 2.122-1.236 3.25-1.279 1.127-.043 1.528-.292.89-.553-1.8-.736 4.539-15.628 6.356-14.931.774.297 1.135.098.801-.442s-.837-2.889-1.118-5.221c-.594-4.935-.917-5.522-1.683-3.064m109.795 11.04a6773 6773 0 0 0-5.255 13.116c-.427 1.083-.12 1.142 1.481.286 1.111-.595 2.229-.872 2.485-.617.255.256.465-.192.465-.996 0-.803 1.261-4.428 2.802-8.055 1.937-4.556 3.231-6.429 4.19-6.061 1.131.434 1.172.129.218-1.653-.643-1.202-1.134-3.442-1.09-4.978s-.069-2.792-.25-2.792-2.451 5.287-5.046 11.75m-115.927-8.043c-.542 1.425-.428 1.54.56.56.684-.679.991-1.486.683-1.793-.308-.308-.867.247-1.243 1.233m-78.61 1.379c-.614 1.147-.928 2.274-.697 2.504.23.23.932-.708 1.559-2.086 1.378-3.024.707-3.35-.862-.418m88.125 6.973c-.043.857.621 2.432 1.476 3.5 1.53 1.91 1.541 1.909.635-.059a62 62 0 0 1-1.476-3.5c-.48-1.296-.567-1.288-.635.059M8.336 220c0 4.125.177 5.813.392 3.75s.216-5.437 0-7.5c-.215-2.062-.392-.375-.392 3.75m77.288-5.461c-.965 2.514-.681 3.163.498 1.136.584-1.004.851-2.036.593-2.293-.257-.258-.749.263-1.091 1.157m-32.804 2.208c10.847.306 11.233.391 9.264 2.036-1.766 1.477-2.091 3.047-2.319 11.217l-.265 9.5-6 3c-5.411 2.706-6.932 2.999-15.5 2.989-7.817-.009-10.429-.429-14.742-2.37C18.193 240.84 11 234.216 11 231.83c0-.64-.258-.905-.574-.59-1.024 1.025 2.38 6.382 6.17 9.71 6.548 5.75 11.647 7.408 23.012 7.483 9.193.061 10.664-.199 16.25-2.867L62 242.632v-8.751C62 224.369 63.094 220 65.475 220c.858 0 1.525-.874 1.525-2 0-1.907-.595-1.99-12.75-1.786l-12.75.214zm30.804 2.792c-.965 2.514-.681 3.163.498 1.136.584-1.004.851-2.036.593-2.293-.257-.258-.749.263-1.091 1.157m-39.936 1.02c1.753.768 3.687 2.194 4.297 3.168.934 1.492 1.002 1.377.428-.727-.832-3.047-2.14-3.99-5.413-3.903-2.365.063-2.328.141.688 1.462m37.936 3.98c-.965 2.514-.681 3.163.498 1.136.584-1.004.851-2.036.593-2.293-.257-.258-.749.263-1.091 1.157m21.014-.039c-.316.825-.139 1.5.393 1.5.533 0 .969-.675.969-1.5s-.177-1.5-.393-1.5-.652.675-.969 1.5m92.986.039c-.965 2.514-.681 3.163.498 1.136.584-1.004.851-2.036.593-2.293-.257-.258-.749.263-1.091 1.157M217 223.93c0 .512-1.012 1.126-2.25 1.364-1.929.372-1.858.453.5.57 1.838.091 2.75-.361 2.75-1.364 0-.825-.225-1.5-.5-1.5s-.5.419-.5.93M49.31 231.5c.005 3.3.192 4.529.415 2.732s.218-4.497-.01-6c-.229-1.503-.411-.032-.405 3.268m30.254-1.793c-.542 1.425-.428 1.54.56.56.684-.679.991-1.486.683-1.793-.308-.308-.867.247-1.243 1.233m114.06-.168c-.965 2.514-.681 3.163.498 1.136.584-1.004.851-2.036.593-2.293-.257-.258-.749.263-1.091 1.157m-97.725.241-11.601.281-1.149 3.835c-1.684 5.622-1.42 8.677.885 10.232 1.819 1.227 1.22 1.399-5.685 1.632-5.36.18-7.963-.126-8.519-1-.537-.846-.804-.521-.815.99-.014 2.168.314 2.25 8.985 2.25 7.674 0 9-.242 9-1.64 0-.902-.74-2.181-1.644-2.842-1.473-1.077-1.499-1.663-.25-5.61L86.5 233.5l10.156-.284c8.237-.23 10.273-.588 10.774-1.893.339-.885.494-1.657.344-1.716s-5.494.019-11.875.173m100.602 5.85-1.914 5.629 2.645 2.121 2.645 2.12-7.973.21c-4.892.129-7.743-.161-7.379-.75.326-.528.116-.96-.466-.96s-1.059.9-1.059 2c0 1.852.667 2 9 2 7.674 0 9-.242 9-1.64 0-.902-.74-2.181-1.644-2.842-1.473-1.077-1.499-1.663-.25-5.61l1.394-4.408 10.156-.284c7.81-.218 10.286-.623 10.719-1.75.474-1.237-1.276-1.466-11.199-1.466h-11.762zm-18.359-3.38c.126.688-.367 3.797-1.096 6.91-1.618 6.918-.747 6.671-23.531 6.686-11.959.008-17.207-.338-17.735-1.168-.461-.724-.755-.312-.765 1.072L135 248h41.557l1.962-7.25c1.079-3.988 2.112-7.812 2.295-8.5s-.395-1.25-1.285-1.25-1.514.563-1.387 1.25m-100.518 2.289c-.965 2.514-.681 3.163.498 1.136.584-1.004.851-2.036.593-2.293-.257-.258-.749.263-1.091 1.157m114 0c-.965 2.514-.681 3.163.498 1.136.584-1.004.851-2.036.593-2.293-.257-.258-.749.263-1.091 1.157m-84.003.961c.418 1.1.787 3.42.819 5.155.033 1.734.398 2.945.81 2.69 1.237-.764.782-4.677-.855-7.345-.93-1.516-1.234-1.713-.774-.5m114.989 4c.823 3.677 1.395 4.475 1.375 1.917-.009-1.054-.472-2.592-1.031-3.417-.741-1.095-.834-.691-.344 1.5M171 240c-.901.582-1.025.975-.309.985.655.008 1.469-.435 1.809-.985.767-1.242.421-1.242-1.5 0m-97.595 2.25L71.5 244.5l2.25-1.905c2.114-1.79 2.705-2.595 1.905-2.595-.19 0-1.202 1.012-2.25 2.25m114.467-.5c-1.243 1.586-1.208 1.621.378.378 1.666-1.307 2.195-2.128 1.372-2.128-.207 0-.995.787-1.75 1.75m-49 1c-1.243 1.586-1.208 1.621.378.378 1.666-1.307 2.195-2.128 1.372-2.128-.207 0-.995.787-1.75 1.75m103.127 2c-.001.412-5.4.75-11.997.75-8.928 0-11.996.32-11.999 1.25-.002.934 3.162 1.25 12.497 1.25 11.833 0 12.5-.107 12.5-2 0-1.1-.225-2-.5-2s-.501.338-.501.75m-134.249 1.066c-1.513.174-2.75.737-2.75 1.25 0 .527 5.236.934 12 .934 10.223 0 12-.232 12-1.566 0-1.33-1.388-1.518-9.25-1.25-5.088.174-10.487.458-12 .632"/></svg>